<mxfile host="Electron" agent="Mozilla/5.0 (Windows NT 10.0; Win64; x64) AppleWebKit/537.36 (KHTML, like Gecko) draw.io/25.0.2 Chrome/128.0.6613.186 Electron/32.2.5 Safari/537.36" version="25.0.2">
  <diagram name="Page-1" id="_x4cxmm0qHP7_557mBBI">
    <mxGraphModel dx="1689" dy="2458" grid="1" gridSize="10" guides="1" tooltips="1" connect="1" arrows="1" fold="1" page="1" pageScale="1" pageWidth="827" pageHeight="1169" math="0" shadow="0">
      <root>
        <mxCell id="0" />
        <mxCell id="1" parent="0" />
        <mxCell id="FuHdCUayMSKoCqNVvJ3A-26" value="" style="endArrow=classic;html=1;rounded=0;exitX=1;exitY=0.5;exitDx=0;exitDy=0;entryX=0;entryY=0.5;entryDx=0;entryDy=0;dashed=1;" parent="1" target="N5hiwU9AkDT1iWFwAcMT-5" edge="1">
          <mxGeometry width="50" height="50" relative="1" as="geometry">
            <mxPoint x="189" y="209" as="sourcePoint" />
            <mxPoint x="293" y="209" as="targetPoint" />
          </mxGeometry>
        </mxCell>
        <mxCell id="FuHdCUayMSKoCqNVvJ3A-29" value="LoRa" style="edgeLabel;html=1;align=center;verticalAlign=middle;resizable=0;points=[];" parent="FuHdCUayMSKoCqNVvJ3A-26" vertex="1" connectable="0">
          <mxGeometry x="-0.1287" relative="1" as="geometry">
            <mxPoint x="8" y="-15" as="offset" />
          </mxGeometry>
        </mxCell>
        <mxCell id="FuHdCUayMSKoCqNVvJ3A-31" value="" style="endArrow=classic;html=1;rounded=0;exitX=1;exitY=0.5;exitDx=0;exitDy=0;entryX=0;entryY=0.25;entryDx=0;entryDy=0;entryPerimeter=0;dashed=1;" parent="1" source="N5hiwU9AkDT1iWFwAcMT-5" target="FuHdCUayMSKoCqNVvJ3A-30" edge="1">
          <mxGeometry width="50" height="50" relative="1" as="geometry">
            <mxPoint x="413" y="225" as="sourcePoint" />
            <mxPoint x="330" y="200" as="targetPoint" />
          </mxGeometry>
        </mxCell>
        <mxCell id="FuHdCUayMSKoCqNVvJ3A-56" value="MQTT" style="edgeLabel;html=1;align=center;verticalAlign=middle;resizable=0;points=[];" parent="FuHdCUayMSKoCqNVvJ3A-31" vertex="1" connectable="0">
          <mxGeometry x="0.0949" y="2" relative="1" as="geometry">
            <mxPoint x="-18" y="-2" as="offset" />
          </mxGeometry>
        </mxCell>
        <mxCell id="FuHdCUayMSKoCqNVvJ3A-33" value="" style="endArrow=classic;html=1;rounded=0;entryX=0;entryY=0.75;entryDx=0;entryDy=0;entryPerimeter=0;dashed=1;" parent="1" source="N5hiwU9AkDT1iWFwAcMT-2" target="FuHdCUayMSKoCqNVvJ3A-30" edge="1">
          <mxGeometry width="50" height="50" relative="1" as="geometry">
            <mxPoint x="190" y="311" as="sourcePoint" />
            <mxPoint x="330" y="200" as="targetPoint" />
          </mxGeometry>
        </mxCell>
        <mxCell id="FuHdCUayMSKoCqNVvJ3A-57" value="MQTT" style="edgeLabel;html=1;align=center;verticalAlign=middle;resizable=0;points=[];" parent="FuHdCUayMSKoCqNVvJ3A-33" vertex="1" connectable="0">
          <mxGeometry x="0.2184" y="-4" relative="1" as="geometry">
            <mxPoint x="-34" y="-8" as="offset" />
          </mxGeometry>
        </mxCell>
        <mxCell id="UAES3K57cF0Ff1gNFWmF-28" value="" style="edgeStyle=orthogonalEdgeStyle;rounded=0;orthogonalLoop=1;jettySize=auto;html=1;" edge="1" parent="1">
          <mxGeometry relative="1" as="geometry">
            <mxPoint x="1130" y="259.9999999999998" as="sourcePoint" />
            <mxPoint x="1025" y="259.9999999999998" as="targetPoint" />
          </mxGeometry>
        </mxCell>
        <mxCell id="FuHdCUayMSKoCqNVvJ3A-38" value="Grafana" style="image;aspect=fixed;html=1;points=[];align=center;fontSize=12;image=img/lib/azure2/other/Grafana.svg;" parent="1" vertex="1">
          <mxGeometry x="1130" y="224.6" width="68" height="52.800000000000004" as="geometry" />
        </mxCell>
        <mxCell id="FuHdCUayMSKoCqNVvJ3A-40" style="edgeStyle=orthogonalEdgeStyle;rounded=0;orthogonalLoop=1;jettySize=auto;html=1;exitX=1;exitY=0.5;exitDx=0;exitDy=0;exitPerimeter=0;entryX=-0.023;entryY=0.497;entryDx=0;entryDy=0;entryPerimeter=0;" parent="1" edge="1">
          <mxGeometry relative="1" as="geometry">
            <mxPoint x="1026.56" y="240.16000000000022" as="sourcePoint" />
            <mxPoint x="1129.9959999999999" y="240.00159999999997" as="targetPoint" />
            <Array as="points">
              <mxPoint x="1091.56" y="240.16" />
              <mxPoint x="1091.56" y="240.16" />
            </Array>
          </mxGeometry>
        </mxCell>
        <mxCell id="UAES3K57cF0Ff1gNFWmF-22" style="edgeStyle=orthogonalEdgeStyle;rounded=0;orthogonalLoop=1;jettySize=auto;html=1;" edge="1" parent="1" source="FuHdCUayMSKoCqNVvJ3A-54">
          <mxGeometry relative="1" as="geometry">
            <mxPoint x="1200" y="250" as="targetPoint" />
            <Array as="points">
              <mxPoint x="1270" y="100" />
              <mxPoint x="1270" y="250" />
            </Array>
          </mxGeometry>
        </mxCell>
        <mxCell id="FuHdCUayMSKoCqNVvJ3A-54" value="User" style="sketch=0;outlineConnect=0;fontColor=#232F3E;gradientColor=none;fillColor=#232F3D;strokeColor=none;dashed=0;verticalLabelPosition=bottom;verticalAlign=top;align=center;html=1;fontSize=12;fontStyle=0;aspect=fixed;pointerEvents=1;shape=mxgraph.aws4.user;" parent="1" vertex="1">
          <mxGeometry x="1340" y="51" width="78" height="78" as="geometry" />
        </mxCell>
        <mxCell id="FuHdCUayMSKoCqNVvJ3A-63" value="AWS Cloud" style="points=[[0,0],[0.25,0],[0.5,0],[0.75,0],[1,0],[1,0.25],[1,0.5],[1,0.75],[1,1],[0.75,1],[0.5,1],[0.25,1],[0,1],[0,0.75],[0,0.5],[0,0.25]];outlineConnect=0;gradientColor=none;html=1;whiteSpace=wrap;fontSize=12;fontStyle=0;container=1;pointerEvents=0;collapsible=0;recursiveResize=0;shape=mxgraph.aws4.group;grIcon=mxgraph.aws4.group_aws_cloud_alt;strokeColor=#232F3E;fillColor=none;verticalAlign=top;align=left;spacingLeft=30;fontColor=#232F3E;dashed=0;" parent="1" vertex="1">
          <mxGeometry x="500" y="-160" width="580" height="500" as="geometry" />
        </mxCell>
        <mxCell id="UAES3K57cF0Ff1gNFWmF-7" value="" style="edgeStyle=orthogonalEdgeStyle;rounded=0;orthogonalLoop=1;jettySize=auto;html=1;" edge="1" parent="FuHdCUayMSKoCqNVvJ3A-63" source="UAES3K57cF0Ff1gNFWmF-2" target="UAES3K57cF0Ff1gNFWmF-3">
          <mxGeometry relative="1" as="geometry" />
        </mxCell>
        <mxCell id="UAES3K57cF0Ff1gNFWmF-2" value="API gateway" style="sketch=0;points=[[0,0,0],[0.25,0,0],[0.5,0,0],[0.75,0,0],[1,0,0],[0,1,0],[0.25,1,0],[0.5,1,0],[0.75,1,0],[1,1,0],[0,0.25,0],[0,0.5,0],[0,0.75,0],[1,0.25,0],[1,0.5,0],[1,0.75,0]];outlineConnect=0;fontColor=#232F3E;fillColor=#E7157B;strokeColor=#ffffff;dashed=0;verticalLabelPosition=bottom;verticalAlign=top;align=center;html=1;fontSize=12;fontStyle=0;aspect=fixed;shape=mxgraph.aws4.resourceIcon;resIcon=mxgraph.aws4.api_gateway;" vertex="1" parent="FuHdCUayMSKoCqNVvJ3A-63">
          <mxGeometry x="310" y="61.5" width="78" height="78" as="geometry" />
        </mxCell>
        <mxCell id="UAES3K57cF0Ff1gNFWmF-12" value="" style="edgeStyle=orthogonalEdgeStyle;rounded=0;orthogonalLoop=1;jettySize=auto;html=1;" edge="1" parent="FuHdCUayMSKoCqNVvJ3A-63" source="UAES3K57cF0Ff1gNFWmF-3" target="UAES3K57cF0Ff1gNFWmF-4">
          <mxGeometry relative="1" as="geometry" />
        </mxCell>
        <mxCell id="UAES3K57cF0Ff1gNFWmF-3" value="Lambda" style="sketch=0;points=[[0,0,0],[0.25,0,0],[0.5,0,0],[0.75,0,0],[1,0,0],[0,1,0],[0.25,1,0],[0.5,1,0],[0.75,1,0],[1,1,0],[0,0.25,0],[0,0.5,0],[0,0.75,0],[1,0.25,0],[1,0.5,0],[1,0.75,0]];outlineConnect=0;fontColor=#232F3E;fillColor=#ED7100;strokeColor=#ffffff;dashed=0;verticalLabelPosition=bottom;verticalAlign=top;align=center;html=1;fontSize=12;fontStyle=0;aspect=fixed;shape=mxgraph.aws4.resourceIcon;resIcon=mxgraph.aws4.lambda;" vertex="1" parent="FuHdCUayMSKoCqNVvJ3A-63">
          <mxGeometry x="184" y="61.5" width="78" height="78" as="geometry" />
        </mxCell>
        <mxCell id="UAES3K57cF0Ff1gNFWmF-4" value="Dynamo DB" style="outlineConnect=0;dashed=0;verticalLabelPosition=bottom;verticalAlign=top;align=center;html=1;shape=mxgraph.aws3.dynamo_db;fillColor=#2E73B8;gradientColor=none;" vertex="1" parent="FuHdCUayMSKoCqNVvJ3A-63">
          <mxGeometry x="60" y="60" width="72" height="81" as="geometry" />
        </mxCell>
        <mxCell id="UAES3K57cF0Ff1gNFWmF-14" value="" style="edgeStyle=orthogonalEdgeStyle;rounded=0;orthogonalLoop=1;jettySize=auto;html=1;" edge="1" parent="FuHdCUayMSKoCqNVvJ3A-63">
          <mxGeometry relative="1" as="geometry">
            <mxPoint x="469.9999999999998" y="211" as="sourcePoint" />
            <mxPoint x="469.9999999999998" y="139.5" as="targetPoint" />
          </mxGeometry>
        </mxCell>
        <mxCell id="UAES3K57cF0Ff1gNFWmF-1" value="Cognito" style="sketch=0;points=[[0,0,0],[0.25,0,0],[0.5,0,0],[0.75,0,0],[1,0,0],[0,1,0],[0.25,1,0],[0.5,1,0],[0.75,1,0],[1,1,0],[0,0.25,0],[0,0.5,0],[0,0.75,0],[1,0.25,0],[1,0.5,0],[1,0.75,0]];outlineConnect=0;fontColor=#232F3E;fillColor=#DD344C;strokeColor=#ffffff;dashed=0;verticalLabelPosition=bottom;verticalAlign=top;align=center;html=1;fontSize=12;fontStyle=0;aspect=fixed;shape=mxgraph.aws4.resourceIcon;resIcon=mxgraph.aws4.cognito;" vertex="1" parent="FuHdCUayMSKoCqNVvJ3A-63">
          <mxGeometry x="447" y="211" width="78" height="78" as="geometry" />
        </mxCell>
        <mxCell id="UAES3K57cF0Ff1gNFWmF-6" value="" style="edgeStyle=orthogonalEdgeStyle;rounded=0;orthogonalLoop=1;jettySize=auto;html=1;" edge="1" parent="FuHdCUayMSKoCqNVvJ3A-63" source="UAES3K57cF0Ff1gNFWmF-5" target="UAES3K57cF0Ff1gNFWmF-2">
          <mxGeometry relative="1" as="geometry" />
        </mxCell>
        <mxCell id="UAES3K57cF0Ff1gNFWmF-17" value="" style="edgeStyle=orthogonalEdgeStyle;rounded=0;orthogonalLoop=1;jettySize=auto;html=1;" edge="1" parent="FuHdCUayMSKoCqNVvJ3A-63" source="UAES3K57cF0Ff1gNFWmF-5" target="UAES3K57cF0Ff1gNFWmF-1">
          <mxGeometry relative="1" as="geometry">
            <Array as="points">
              <mxPoint x="500" y="180" />
              <mxPoint x="500" y="180" />
            </Array>
          </mxGeometry>
        </mxCell>
        <mxCell id="UAES3K57cF0Ff1gNFWmF-5" value="" style="sketch=0;points=[[0,0,0],[0.25,0,0],[0.5,0,0],[0.75,0,0],[1,0,0],[0,1,0],[0.25,1,0],[0.5,1,0],[0.75,1,0],[1,1,0],[0,0.25,0],[0,0.5,0],[0,0.75,0],[1,0.25,0],[1,0.5,0],[1,0.75,0]];outlineConnect=0;fontColor=#232F3E;fillColor=#DD344C;strokeColor=#ffffff;dashed=0;verticalLabelPosition=bottom;verticalAlign=top;align=center;html=1;fontSize=12;fontStyle=0;aspect=fixed;shape=mxgraph.aws4.resourceIcon;resIcon=mxgraph.aws4.amplify;" vertex="1" parent="FuHdCUayMSKoCqNVvJ3A-63">
          <mxGeometry x="447" y="61.5" width="78" height="78" as="geometry" />
        </mxCell>
        <mxCell id="FuHdCUayMSKoCqNVvJ3A-34" value="Timestream" style="sketch=0;points=[[0,0,0],[0.25,0,0],[0.5,0,0],[0.75,0,0],[1,0,0],[0,1,0],[0.25,1,0],[0.5,1,0],[0.75,1,0],[1,1,0],[0,0.25,0],[0,0.5,0],[0,0.75,0],[1,0.25,0],[1,0.5,0],[1,0.75,0]];outlineConnect=0;fontColor=#232F3E;fillColor=#C925D1;strokeColor=#ffffff;dashed=0;verticalLabelPosition=bottom;verticalAlign=top;align=center;html=1;fontSize=12;fontStyle=0;aspect=fixed;shape=mxgraph.aws4.resourceIcon;resIcon=mxgraph.aws4.timestream;" parent="FuHdCUayMSKoCqNVvJ3A-63" vertex="1">
          <mxGeometry x="310" y="372" width="78" height="78" as="geometry" />
        </mxCell>
        <mxCell id="FuHdCUayMSKoCqNVvJ3A-37" value="Managed service&lt;div&gt;for Grafana&lt;/div&gt;" style="sketch=0;points=[[0,0,0],[0.25,0,0],[0.5,0,0],[0.75,0,0],[1,0,0],[0,1,0],[0.25,1,0],[0.5,1,0],[0.75,1,0],[1,1,0],[0,0.25,0],[0,0.5,0],[0,0.75,0],[1,0.25,0],[1,0.5,0],[1,0.75,0]];points=[[0,0,0],[0.25,0,0],[0.5,0,0],[0.75,0,0],[1,0,0],[0,1,0],[0.25,1,0],[0.5,1,0],[0.75,1,0],[1,1,0],[0,0.25,0],[0,0.5,0],[0,0.75,0],[1,0.25,0],[1,0.5,0],[1,0.75,0]];outlineConnect=0;fontColor=#232F3E;fillColor=#E7157B;strokeColor=#ffffff;dashed=0;verticalLabelPosition=bottom;verticalAlign=top;align=center;html=1;fontSize=12;fontStyle=0;aspect=fixed;shape=mxgraph.aws4.resourceIcon;resIcon=mxgraph.aws4.managed_service_for_grafana;" parent="FuHdCUayMSKoCqNVvJ3A-63" vertex="1">
          <mxGeometry x="447" y="372" width="78" height="78" as="geometry" />
        </mxCell>
        <mxCell id="FuHdCUayMSKoCqNVvJ3A-39" style="edgeStyle=orthogonalEdgeStyle;rounded=0;orthogonalLoop=1;jettySize=auto;html=1;exitX=1;exitY=0.5;exitDx=0;exitDy=0;exitPerimeter=0;entryX=0;entryY=0.5;entryDx=0;entryDy=0;entryPerimeter=0;" parent="FuHdCUayMSKoCqNVvJ3A-63" source="FuHdCUayMSKoCqNVvJ3A-34" target="FuHdCUayMSKoCqNVvJ3A-37" edge="1">
          <mxGeometry relative="1" as="geometry" />
        </mxCell>
        <mxCell id="FuHdCUayMSKoCqNVvJ3A-46" value="Rule" style="sketch=0;outlineConnect=0;fontColor=#232F3E;gradientColor=none;fillColor=#7AA116;strokeColor=none;dashed=0;verticalLabelPosition=bottom;verticalAlign=top;align=center;html=1;fontSize=12;fontStyle=0;aspect=fixed;pointerEvents=1;shape=mxgraph.aws4.rule;" parent="FuHdCUayMSKoCqNVvJ3A-63" vertex="1">
          <mxGeometry x="200" y="372" width="46" height="78" as="geometry" />
        </mxCell>
        <mxCell id="FuHdCUayMSKoCqNVvJ3A-48" value="" style="edgeStyle=orthogonalEdgeStyle;rounded=0;orthogonalLoop=1;jettySize=auto;html=1;" parent="FuHdCUayMSKoCqNVvJ3A-63" source="FuHdCUayMSKoCqNVvJ3A-46" target="FuHdCUayMSKoCqNVvJ3A-34" edge="1">
          <mxGeometry relative="1" as="geometry" />
        </mxCell>
        <mxCell id="FuHdCUayMSKoCqNVvJ3A-30" value="Core IoT" style="sketch=0;points=[[0,0,0],[0.25,0,0],[0.5,0,0],[0.75,0,0],[1,0,0],[0,1,0],[0.25,1,0],[0.5,1,0],[0.75,1,0],[1,1,0],[0,0.25,0],[0,0.5,0],[0,0.75,0],[1,0.25,0],[1,0.5,0],[1,0.75,0]];outlineConnect=0;fontColor=#232F3E;fillColor=#7AA116;strokeColor=#ffffff;dashed=0;verticalLabelPosition=bottom;verticalAlign=top;align=center;html=1;fontSize=12;fontStyle=0;aspect=fixed;shape=mxgraph.aws4.resourceIcon;resIcon=mxgraph.aws4.iot_core;" parent="FuHdCUayMSKoCqNVvJ3A-63" vertex="1">
          <mxGeometry x="60" y="372" width="78" height="78" as="geometry" />
        </mxCell>
        <mxCell id="FuHdCUayMSKoCqNVvJ3A-47" style="edgeStyle=orthogonalEdgeStyle;rounded=0;orthogonalLoop=1;jettySize=auto;html=1;exitX=1;exitY=0.5;exitDx=0;exitDy=0;exitPerimeter=0;" parent="FuHdCUayMSKoCqNVvJ3A-63" source="FuHdCUayMSKoCqNVvJ3A-30" target="FuHdCUayMSKoCqNVvJ3A-46" edge="1">
          <mxGeometry relative="1" as="geometry" />
        </mxCell>
        <mxCell id="UAES3K57cF0Ff1gNFWmF-13" value="" style="endArrow=classic;html=1;rounded=0;entryX=0.5;entryY=0;entryDx=0;entryDy=0;entryPerimeter=0;" edge="1" parent="FuHdCUayMSKoCqNVvJ3A-63" source="UAES3K57cF0Ff1gNFWmF-4" target="FuHdCUayMSKoCqNVvJ3A-37">
          <mxGeometry width="50" height="50" relative="1" as="geometry">
            <mxPoint x="340" y="-60" as="sourcePoint" />
            <mxPoint x="420" y="-110" as="targetPoint" />
          </mxGeometry>
        </mxCell>
        <mxCell id="UAES3K57cF0Ff1gNFWmF-16" value="&lt;span style=&quot;color: rgb(35, 47, 62);&quot;&gt;Amplify&lt;/span&gt;" style="text;html=1;align=center;verticalAlign=middle;resizable=0;points=[];autosize=1;strokeColor=none;fillColor=none;" vertex="1" parent="FuHdCUayMSKoCqNVvJ3A-63">
          <mxGeometry x="456" y="31.5" width="60" height="30" as="geometry" />
        </mxCell>
        <mxCell id="N5hiwU9AkDT1iWFwAcMT-1" value="LoRa device" style="sketch=0;outlineConnect=0;fontColor=#232F3E;gradientColor=none;fillColor=#7AA116;strokeColor=none;dashed=0;verticalLabelPosition=bottom;verticalAlign=top;align=center;html=1;fontSize=12;fontStyle=0;aspect=fixed;pointerEvents=1;shape=mxgraph.aws4.iot_thing_freertos_device;" parent="1" vertex="1">
          <mxGeometry x="111" y="170" width="78" height="78" as="geometry" />
        </mxCell>
        <mxCell id="N5hiwU9AkDT1iWFwAcMT-2" value="WiFi device" style="sketch=0;outlineConnect=0;fontColor=#232F3E;gradientColor=none;fillColor=#7AA116;strokeColor=none;dashed=0;verticalLabelPosition=bottom;verticalAlign=top;align=center;html=1;fontSize=12;fontStyle=0;aspect=fixed;pointerEvents=1;shape=mxgraph.aws4.iot_thing_freertos_device;" parent="1" vertex="1">
          <mxGeometry x="111" y="290" width="78" height="78" as="geometry" />
        </mxCell>
        <mxCell id="N5hiwU9AkDT1iWFwAcMT-5" value="TTN" style="shape=image;verticalLabelPosition=bottom;labelBackgroundColor=default;verticalAlign=top;aspect=fixed;imageAspect=0;image=https://www.ictpower.it/wp-content/uploads/2018/05/The-Thing-Network.png;clipPath=inset(10.36% 28.33% 7.99% 25.67%);" parent="1" vertex="1">
          <mxGeometry x="310" y="172.71" width="72.59" height="72.59" as="geometry" />
        </mxCell>
        <mxCell id="UAES3K57cF0Ff1gNFWmF-18" value="" style="endArrow=classic;html=1;rounded=0;exitX=1;exitY=0.25;exitDx=0;exitDy=0;exitPerimeter=0;" edge="1" parent="1" source="UAES3K57cF0Ff1gNFWmF-1">
          <mxGeometry width="50" height="50" relative="1" as="geometry">
            <mxPoint x="642" y="-24" as="sourcePoint" />
            <mxPoint x="1180" y="222" as="targetPoint" />
          </mxGeometry>
        </mxCell>
        <mxCell id="UAES3K57cF0Ff1gNFWmF-19" value="" style="endArrow=classic;html=1;rounded=0;entryX=1;entryY=0.75;entryDx=0;entryDy=0;entryPerimeter=0;" edge="1" parent="1" source="FuHdCUayMSKoCqNVvJ3A-38" target="UAES3K57cF0Ff1gNFWmF-1">
          <mxGeometry width="50" height="50" relative="1" as="geometry">
            <mxPoint x="1360" y="160" as="sourcePoint" />
            <mxPoint x="1190" y="232" as="targetPoint" />
          </mxGeometry>
        </mxCell>
        <mxCell id="UAES3K57cF0Ff1gNFWmF-23" style="edgeStyle=orthogonalEdgeStyle;rounded=0;orthogonalLoop=1;jettySize=auto;html=1;" edge="1" parent="1" source="FuHdCUayMSKoCqNVvJ3A-54" target="UAES3K57cF0Ff1gNFWmF-24">
          <mxGeometry relative="1" as="geometry">
            <mxPoint x="1160" y="-60" as="targetPoint" />
            <Array as="points">
              <mxPoint x="1270" y="100" />
              <mxPoint x="1270" y="-59" />
            </Array>
          </mxGeometry>
        </mxCell>
        <mxCell id="UAES3K57cF0Ff1gNFWmF-25" value="" style="edgeStyle=orthogonalEdgeStyle;rounded=0;orthogonalLoop=1;jettySize=auto;html=1;" edge="1" parent="1">
          <mxGeometry relative="1" as="geometry">
            <mxPoint x="1130" y="-70" as="sourcePoint" />
            <mxPoint x="1024.9999999999998" y="-70" as="targetPoint" />
          </mxGeometry>
        </mxCell>
        <mxCell id="UAES3K57cF0Ff1gNFWmF-24" value="Web page" style="sketch=0;pointerEvents=1;shadow=0;dashed=0;html=1;strokeColor=none;fillColor=#505050;labelPosition=center;verticalLabelPosition=bottom;verticalAlign=top;outlineConnect=0;align=center;shape=mxgraph.office.concepts.web_page;" vertex="1" parent="1">
          <mxGeometry x="1130" y="-103" width="80" height="87" as="geometry" />
        </mxCell>
        <mxCell id="UAES3K57cF0Ff1gNFWmF-27" value="" style="edgeStyle=orthogonalEdgeStyle;rounded=0;orthogonalLoop=1;jettySize=auto;html=1;" edge="1" parent="1">
          <mxGeometry relative="1" as="geometry">
            <mxPoint x="1024.9999999999998" y="-50.00000000000023" as="sourcePoint" />
            <mxPoint x="1130" y="-50.00000000000023" as="targetPoint" />
          </mxGeometry>
        </mxCell>
      </root>
    </mxGraphModel>
  </diagram>
</mxfile>
